# xmcd CD database file
#
# Track frame offsets:
#	150
#	23716
#	44341
#	61543
#	85580
#	103880
#
# Disc length: 1655 seconds
#
# Revision: 0
# Processed by: cddbd v1.5.1PL2 Copyright (c) Steve Scherf et al.
# Submitted via: CDex 1.51
#
DISCID=3d067506
DTITLE=PopKorn - blanket of snow
DYEAR=2000
DGENRE=Game
TTITLE0=冬の花火 -Euro Style-
TTITLE1=笑顔の向こう側に -Urban Mix-
TTITLE2=the fox and the grapes -Drab Mix-
TTITLE3=日溜まりの街 -Celestial Mix-
TTITLE4=雪の少女 -Snowstorm Mix-
TTITLE5=少女の檻 -in fantasy world-
EXTD=YEAR: 2000
EXTT0=
EXTT1=
EXTT2=
EXTT3=
EXTT4=
EXTT5=
PLAYORDER=
